<svg xmlns="http://www.w3.org/2000/svg" id="Layer_1" viewBox="0 0 256 256" width="256" height="256"><defs><style>.cls-1{fill:#d8c2ab}</style></defs><path d="M89 8.49A13.56 13.56 0 1 1 75.43-5.06 13.55 13.55 0 0 1 89 8.49zm40.3-4.61a2.64 2.64 0 0 1-.23.44c-.93 1.53-23.21 37.52-53.63 37.52S22.73 5.85 21.8 4.32a3.68 3.68 0 0 1-.23-.44 25.06 25.06 0 0 1 .33-18.36c3.56-8.69 11.71-15.65 24.25-20.69 8.37-3.37 16.34-6.19 29.14-6.67h.28c12.81.48 20.77 3.3 29.14 6.67 12.54 5 20.7 12 24.25 20.69a25.06 25.06 0 0 1 .33 18.36zm-14.19 6.82l-8.39-4.47a9.73 9.73 0 0 1-4.27 1A9.84 9.84 0 0 1 92.6-2.6a9.85 9.85 0 0 1 9.85-9.85 9.81 9.81 0 0 1 9.75 9l9.71 5.18.65-1a17.78 17.78 0 0 0-.56-12.54c-2.8-6.69-9.56-12.23-20.08-16.46-7.68-3.09-15-5.68-26.51-6.13-11.54.45-18.55 2.93-26.51 6.13C38.4-24 31.64-18.5 28.84-11.81A17.67 17.67 0 0 0 28.31.7c.13.21.35.55.64 1l9.71-5.17a9.81 9.81 0 0 1 9.76-9 9.84 9.84 0 0 1 9.84 9.87 9.84 9.84 0 0 1-9.84 9.84 9.77 9.77 0 0 1-4.28-1l-8.39 4.46c8.39 10 22.93 23.7 39.68 23.7s31.3-13.7 39.68-23.7zM89 264.49a13.56 13.56 0 1 1-13.56-13.55A13.55 13.55 0 0 1 89 264.49zm40.3-4.61a2.64 2.64 0 0 1-.23.44c-.93 1.53-23.21 37.52-53.63 37.52s-52.7-36-53.63-37.52a3.68 3.68 0 0 1-.23-.44 25.06 25.06 0 0 1 .33-18.36c3.56-8.69 11.71-15.65 24.25-20.69 8.37-3.37 16.34-6.19 29.14-6.67h.28c12.81.48 20.77 3.3 29.14 6.67 12.54 5 20.7 12 24.25 20.69a25.06 25.06 0 0 1 .32 18.36zm-14.18 6.82l-8.39-4.47a9.73 9.73 0 0 1-4.27 1 9.85 9.85 0 1 1 9.75-10.73l9.71 5.18.65-1a17.78 17.78 0 0 0-.54-12.51c-2.8-6.69-9.56-12.23-20.08-16.46-7.68-3.09-15-5.68-26.51-6.13-11.54.45-18.55 2.93-26.51 6.13-10.53 4.29-17.29 9.79-20.09 16.48a17.67 17.67 0 0 0-.53 12.51c.13.21.35.55.64 1l9.71-5.17a9.87 9.87 0 1 1 5.48 9.72l-8.39 4.47c8.39 10 22.93 23.7 39.68 23.7s31.3-13.72 39.68-23.72zm79.01-130.21a13.56 13.56 0 1 1-13.56-13.55 13.56 13.56 0 0 1 13.56 13.55zm40.3-4.61a3.68 3.68 0 0 1-.23.44c-.93 1.53-23.21 37.52-53.63 37.52s-52.7-36-53.63-37.52a2.64 2.64 0 0 1-.23-.44 25.06 25.06 0 0 1 .33-18.36c3.55-8.69 11.71-15.65 24.25-20.69 8.37-3.37 16.33-6.19 29.14-6.67h.28c12.8.48 20.77 3.3 29.14 6.67 12.54 5 20.69 12 24.25 20.69a25.06 25.06 0 0 1 .33 18.36zm-14.18 6.82l-8.39-4.47a9.84 9.84 0 1 1 5.48-9.72l9.71 5.18.64-1a17.7 17.7 0 0 0-.53-12.51c-2.8-6.69-9.56-12.23-20.08-16.46-7.68-3.09-15-5.68-26.51-6.13-11.55.45-18.56 2.93-26.51 6.13-10.52 4.28-17.28 9.78-20.06 16.47a17.67 17.67 0 0 0-.53 12.51c.13.21.35.55.64 1l9.71-5.17a9.87 9.87 0 1 1 5.48 9.72l-8.39 4.47c8.38 10 22.93 23.7 39.68 23.7s31.27-13.72 39.66-23.72z" class="cls-1"/></svg>